<svg width="186" height="82" viewBox="0 0 186 82" fill="none" xmlns="http://www.w3.org/2000/svg">
<path d="M40.8388 66.1642C40.8388 64.0409 39.4448 62.9792 36.657 62.9792C34.272 62.983 31.9354 63.6524 29.9102 64.912V59.466C32.3128 58.1598 35.0172 57.5099 37.751 57.5818C43.9588 57.5818 47.0628 60.3575 47.0628 65.9089V80.995C44.1786 81.6425 41.2296 81.9565 38.2737 81.931C31.2878 81.931 27.7949 79.5403 27.7949 74.7587C27.7949 69.9772 31.2878 67.5865 38.2737 67.5865H40.8388V66.1642ZM40.8388 71.6102C40.8388 71.6102 34.1284 71.2334 34.1284 74.4427C34.1284 77.9923 39.7082 77.3481 40.8388 77.0563V71.6102Z" fill="#31302F"/>
<path d="M82.561 35.0799C82.561 32.9566 81.167 31.895 78.3792 31.895C75.9942 31.8988 73.6575 32.5682 71.6323 33.8278V28.3818C74.0394 27.0756 76.7477 26.4258 79.4854 26.4975C85.6851 26.4975 88.7891 29.2733 88.7972 34.8247V49.8986C85.9104 50.5563 82.9566 50.8745 79.9959 50.8467C73.0182 50.8467 69.5293 48.456 69.5293 43.6745C69.5293 38.893 73.0182 36.5022 79.9959 36.5022H82.561V35.0799ZM82.561 40.526C82.561 40.526 75.8628 40.1491 75.8628 43.3584C75.8628 46.8959 81.4426 46.2638 82.561 45.9721V40.526Z" fill="#31302F"/>
<path d="M44.6196 50.3606L37.958 28.625L34.7244 50.3606H28.2207L32.7793 19.2524H40.839L47.8046 42.0335L54.5636 19.2524H62.6354L67.2427 50.3606H60.6417L57.396 28.625L50.6857 50.3606H44.6196Z" fill="#31302F"/>
<path d="M106.737 38.3142L115.38 50.3612H108.099L102.969 43.0309L97.8875 50.3612H90.9219L99.5651 38.375L91.396 27.0088H98.8843L103.285 33.6097L107.686 27.0088H114.906L106.737 38.3142Z" fill="#31302F"/>
<path d="M57.0424 81.4686H50.709V59.8911C53.6081 58.4123 56.8277 57.6732 60.0815 57.7394C61.7238 57.7242 63.3603 57.9369 64.944 58.3715V64.4497C63.4418 63.8854 61.8435 63.6212 60.2395 63.6718C59.1524 63.6703 58.0724 63.8469 57.0424 64.1945V81.4686Z" fill="#31302F"/>
<path d="M72.0457 71.5492V71.6586C72.1346 72.4231 72.4007 73.1563 72.8227 73.8C73.2448 74.4436 73.8112 74.98 74.4769 75.3663C75.8119 76.1917 77.3569 76.6139 78.9261 76.5819C81.6694 76.6081 84.3679 75.8851 86.7306 74.491V79.8276C84.203 81.3869 81.2597 82.1376 78.2941 81.9793C76.6525 82.0617 75.0109 81.8172 73.4645 81.26C71.9182 80.7028 70.4979 79.8441 69.2861 78.7335C68.148 77.599 67.2613 76.2378 66.6833 74.7383C66.1052 73.2388 65.8489 71.6346 65.931 70.0296C65.931 59.0889 74.0393 57.5693 77.3458 57.5693C86.6576 57.5693 87.4599 65.2886 87.4599 68.5101V71.5492H72.0457ZM82.3664 67.7807C82.4078 67.1264 82.3113 66.4706 82.0831 65.8559C81.8548 65.2412 81.5 64.6814 81.0416 64.2126C80.5831 63.7438 80.0314 63.3767 79.4219 63.1348C78.8125 62.893 78.159 62.7819 77.5039 62.8087C76.8138 62.7644 76.1218 62.8587 75.4687 63.0861C74.8157 63.3136 74.2148 63.6696 73.7015 64.133C73.1882 64.5964 72.773 65.1579 72.4802 65.7844C72.1875 66.4109 72.0232 67.0897 71.9971 67.7807H82.3664Z" fill="#31302F"/>
<path d="M42.502 12.6397C41.4662 11.6045 40.7606 10.2854 40.4746 8.84917C40.1886 7.41296 40.3349 5.9242 40.8952 4.57118C41.4554 3.21816 42.4043 2.06166 43.6218 1.24799C44.8394 0.434315 46.2709 0 47.7353 0C49.1997 0 50.6312 0.434315 51.8487 1.24799C53.0663 2.06166 54.0152 3.21816 54.5754 4.57118C55.1356 5.9242 55.2819 7.41296 54.9959 8.84917C54.7099 10.2854 54.0044 11.6045 52.9686 12.6397C52.282 13.3281 51.4663 13.8743 50.5683 14.247C49.6703 14.6197 48.7076 14.8115 47.7353 14.8115C46.763 14.8115 45.8002 14.6197 44.9022 14.247C44.0042 13.8743 43.1885 13.3281 42.502 12.6397Z" fill="#EF413D"/>
<path d="M182.654 65.8848H182.24V63.4536C182.443 63.44 182.646 63.44 182.848 63.4536C183.492 63.4536 183.845 63.7331 183.845 64.2558C183.849 64.4113 183.805 64.5642 183.717 64.6929C183.63 64.8216 183.505 64.9196 183.359 64.9731L184.1 65.9456H183.59L182.933 65.0703H182.654V65.8848ZM182.654 64.6692H182.86C183.201 64.6692 183.419 64.5233 183.419 64.2072C183.419 63.8912 183.225 63.7575 182.848 63.7575H182.654V64.6692Z" fill="#F2F2F2"/>
<path d="M182.973 66.8455C182.533 66.8455 182.103 66.715 181.737 66.4705C181.371 66.2261 181.086 65.8786 180.917 65.4721C180.749 65.0657 180.705 64.6184 180.791 64.1868C180.877 63.7553 181.089 63.3589 181.4 63.0478C181.711 62.7367 182.107 62.5248 182.539 62.439C182.97 62.3532 183.418 62.3972 183.824 62.5656C184.231 62.7339 184.578 63.0191 184.822 63.3849C185.067 63.7508 185.197 64.1808 185.197 64.6208C185.197 65.2108 184.963 65.7767 184.546 66.1939C184.129 66.6111 183.563 66.8455 182.973 66.8455ZM182.973 62.7974C182.525 62.8491 182.113 63.0635 181.813 63.3997C181.513 63.7359 181.348 64.1705 181.348 64.6208C181.348 65.0711 181.513 65.5057 181.813 65.8419C182.113 66.1782 182.525 66.3925 182.973 66.4443C183.23 66.474 183.49 66.449 183.737 66.371C183.984 66.2929 184.211 66.1636 184.405 65.9914C184.598 65.8192 184.753 65.608 184.859 65.3718C184.964 65.1356 185.019 64.8797 185.019 64.6208C185.019 64.362 184.964 64.1061 184.859 63.8699C184.753 63.6337 184.598 63.4225 184.405 63.2503C184.211 63.0781 183.984 62.9487 183.737 62.8707C183.49 62.7926 183.23 62.7676 182.973 62.7974Z" fill="#F2F2F2"/>
<path d="M110.03 55.916H112.704V81.5538H110.03V69.6892H94.2389V81.5538H91.5645V55.916H94.2389V67.3187H110.03V55.916Z" fill="#31302F"/>
<path d="M123.598 62.311C129.214 62.311 133.055 66.3226 133.055 72.1455C133.055 77.9684 129.214 81.9922 123.598 81.9922C117.982 81.9922 114.152 77.9684 114.152 72.1455C114.152 66.3226 117.994 62.311 123.598 62.311ZM123.598 64.5478C119.635 64.5478 116.778 67.5747 116.778 72.1455C116.778 76.7163 119.635 79.7432 123.598 79.7432C127.561 79.7432 130.418 76.7284 130.418 72.1455C130.418 67.5625 127.573 64.5478 123.598 64.5478Z" fill="#31302F"/>
<path d="M158.45 68.948C158.45 65.4591 156.019 64.6325 154.049 64.6325C152.157 64.6318 150.282 64.9992 148.53 65.7144C148.918 66.7053 149.108 67.7626 149.09 68.8265V81.5542H146.5V68.948C146.5 65.4591 144.203 64.6325 142.051 64.6325C140.36 64.6266 138.681 64.9188 137.091 65.4956V81.5542H134.502V63.9518C136.891 62.9286 139.453 62.3716 142.051 62.3107C143.853 62.1807 145.642 62.698 147.096 63.7694C149.307 62.87 151.663 62.3759 154.049 62.3107C158.584 62.3107 161.039 64.1584 161.039 68.8629V81.5542H158.45V68.948Z" fill="#31302F"/>
<path d="M165.076 72.2788V72.3639C165.028 73.3088 165.173 74.2536 165.503 75.1401C165.834 76.0267 166.342 76.8363 166.996 77.5194C167.651 78.2025 168.438 78.7445 169.31 79.1122C170.182 79.48 171.119 79.6656 172.066 79.6577C174.391 79.7327 176.669 78.9836 178.496 77.5425V80.1318C176.592 81.3861 174.345 82.019 172.066 81.9431C166.62 81.9431 162.486 78.2233 162.486 72.0965C162.486 66.4438 166.364 62.262 171.421 62.262C176.162 62.262 179.311 65.1065 179.311 70.4553V72.2302L165.076 72.2788ZM176.405 70.115C176.235 66.1885 174.108 64.4502 170.971 64.596C169.5 64.6645 168.103 65.2596 167.034 66.2727C165.965 67.2859 165.296 68.6496 165.149 70.115H176.405Z" fill="#31302F"/>
<path d="M24.9372 72.8981C22.597 74.6882 19.7265 75.6465 16.7802 75.6211C15.5069 75.666 14.2385 75.4424 13.0573 74.9649C11.876 74.4873 10.8085 73.7666 9.92409 72.8495C9.01846 71.8708 8.3158 70.7222 7.85675 69.4703C7.39771 68.2184 7.19137 66.8879 7.24968 65.5557C7.11138 62.8902 8.01359 60.2751 9.76605 58.2619C10.6235 57.3325 11.6709 56.5985 12.8371 56.1098C14.0034 55.6211 15.2611 55.389 16.525 55.4294C18.09 55.3596 19.6526 55.6117 21.1163 56.17C22.5799 56.7283 23.9135 57.5809 25.0345 58.6751V51.5515C22.437 50.1036 19.4977 49.3814 16.525 49.4607C14.3766 49.4016 12.238 49.7737 10.2359 50.5551C8.23369 51.3364 6.40846 52.5112 4.86797 54.0099C3.32747 55.5086 2.10294 57.3009 1.26683 59.2808C0.430723 61.2608 0 63.3882 0 65.5374C0 67.6867 0.430723 69.8141 1.26683 71.7941C2.10294 73.774 3.32747 75.5663 4.86797 77.065C6.40846 78.5637 8.23369 79.7384 10.2359 80.5198C12.238 81.3012 14.3766 81.6734 16.525 81.6143C19.4504 81.6657 22.3422 80.9845 24.9372 79.6328V72.8981Z" fill="#31302F"/>
</svg>
